<?xml version="1.0" encoding="UTF-8" standalone="no"?>
<!DOCTYPE svg PUBLIC "-//W3C//DTD SVG 1.1//EN"
 "http://www.w3.org/Graphics/SVG/1.1/DTD/svg11.dtd">
<!-- Generated by graphviz version 2.43.0 (0)
 -->
<!-- Title: src Pages: 1 -->
<svg width="170pt" height="148pt"
 viewBox="0.00 0.00 170.00 148.00" xmlns="http://www.w3.org/2000/svg" xmlns:xlink="http://www.w3.org/1999/xlink">
<g id="graph0" class="graph" transform="scale(1 1) rotate(0) translate(4 144)">
<title>src</title>
<polygon fill="white" stroke="transparent" points="-4,4 -4,-144 166,-144 166,4 -4,4"/>
<g id="clust1" class="cluster">
<title>clusterdir_68267d1309a1af8e8297ef4c3efbcdba</title>
<g id="a_clust1"><a xlink:href="dir_68267d1309a1af8e8297ef4c3efbcdba.html" target="_top">
<polygon fill="#eeeeff" stroke="black" points="8,-8 8,-132 154,-132 154,-8 8,-8"/>
</a>
</g>
</g>
<!-- dir_68267d1309a1af8e8297ef4c3efbcdba -->
<g id="node1" class="node">
<title>dir_68267d1309a1af8e8297ef4c3efbcdba</title>
<text text-anchor="middle" x="82" y="-103.5" font-family="Helvetica,sans-Serif" font-size="10.00">src</text>
</g>
<!-- dir_ff4f62fc86adbdb587c6c3e6537fd49b -->
<g id="node2" class="node">
<title>dir_ff4f62fc86adbdb587c6c3e6537fd49b</title>
<g id="a_node2"><a xlink:href="dir_ff4f62fc86adbdb587c6c3e6537fd49b.html" target="_top" xlink:title="multiple">
<polygon fill="white" stroke="black" points="73.5,-52 16.5,-52 16.5,-16 73.5,-16 73.5,-52"/>
<text text-anchor="middle" x="45" y="-31.5" font-family="Helvetica,sans-Serif" font-size="10.00">multiple</text>
</a>
</g>
</g>
<!-- dir_68267d1309a1af8e8297ef4c3efbcdba&#45;&gt;dir_ff4f62fc86adbdb587c6c3e6537fd49b -->
<g id="edge2" class="edge">
<title>dir_68267d1309a1af8e8297ef4c3efbcdba&#45;&gt;dir_ff4f62fc86adbdb587c6c3e6537fd49b</title>
<path fill="none" stroke="black" d="M72.85,-87.7C68.6,-79.64 63.44,-69.89 58.73,-60.98"/>
<polygon fill="black" stroke="black" points="61.81,-59.31 54.04,-52.1 55.62,-62.58 61.81,-59.31"/>
<g id="a_edge2&#45;headlabel"><a xlink:href="dir_000000_000001.html" target="_top" xlink:title="1">
<text text-anchor="middle" x="66" y="-58.66" font-family="Helvetica,sans-Serif" font-size="10.00">1</text>
</a>
</g>
</g>
<!-- dir_b49eefbbc0b88fae91ade3f6e0837401 -->
<g id="node3" class="node">
<title>dir_b49eefbbc0b88fae91ade3f6e0837401</title>
<g id="a_node3"><a xlink:href="dir_b49eefbbc0b88fae91ade3f6e0837401.html" target="_top" xlink:title="ranges">
<polygon fill="white" stroke="black" points="146,-52 92,-52 92,-16 146,-16 146,-52"/>
<text text-anchor="middle" x="119" y="-31.5" font-family="Helvetica,sans-Serif" font-size="10.00">ranges</text>
</a>
</g>
</g>
<!-- dir_68267d1309a1af8e8297ef4c3efbcdba&#45;&gt;dir_b49eefbbc0b88fae91ade3f6e0837401 -->
<g id="edge1" class="edge">
<title>dir_68267d1309a1af8e8297ef4c3efbcdba&#45;&gt;dir_b49eefbbc0b88fae91ade3f6e0837401</title>
<path fill="none" stroke="black" d="M91.15,-87.7C95.4,-79.64 100.56,-69.89 105.27,-60.98"/>
<polygon fill="black" stroke="black" points="108.38,-62.58 109.96,-52.1 102.19,-59.31 108.38,-62.58"/>
<g id="a_edge1&#45;headlabel"><a xlink:href="dir_000000_000002.html" target="_top" xlink:title="1">
<text text-anchor="middle" x="109.21" y="-64.59" font-family="Helvetica,sans-Serif" font-size="10.00">1</text>
</a>
</g>
</g>
</g>
</svg>
