<?xml version="1.0" encoding="UTF-8" standalone="no"?>
<!DOCTYPE svg PUBLIC "-//W3C//DTD SVG 1.1//EN"
 "http://www.w3.org/Graphics/SVG/1.1/DTD/svg11.dtd">
<!-- Generated by graphviz version 2.43.0 (0)
 -->
<!-- Title: src Pages: 1 -->
<svg width="180pt" height="148pt"
 viewBox="0.00 0.00 180.00 148.00" xmlns="http://www.w3.org/2000/svg" xmlns:xlink="http://www.w3.org/1999/xlink">
<g id="graph0" class="graph" transform="scale(1 1) rotate(0) translate(4 144)">
<title>src</title>
<polygon fill="white" stroke="transparent" points="-4,4 -4,-144 176,-144 176,4 -4,4"/>
<g id="clust1" class="cluster">
<title>clusterdir_68267d1309a1af8e8297ef4c3efbcdba</title>
<g id="a_clust1"><a xlink:href="dir_68267d1309a1af8e8297ef4c3efbcdba.html" target="_top">
<polygon fill="#eeeeff" stroke="black" points="8,-8 8,-132 164,-132 164,-8 8,-8"/>
</a>
</g>
</g>
<!-- dir_68267d1309a1af8e8297ef4c3efbcdba -->
<g id="node1" class="node">
<title>dir_68267d1309a1af8e8297ef4c3efbcdba</title>
<text text-anchor="middle" x="89" y="-103.5" font-family="Helvetica,sans-Serif" font-size="10.00">src</text>
</g>
<!-- dir_c1c893c91ca02d934d07bb0f5a2ce590 -->
<g id="node2" class="node">
<title>dir_c1c893c91ca02d934d07bb0f5a2ce590</title>
<g id="a_node2"><a xlink:href="dir_c1c893c91ca02d934d07bb0f5a2ce590.html" target="_top" xlink:title="predicates">
<polygon fill="white" stroke="black" points="84,-52 16,-52 16,-16 84,-16 84,-52"/>
<text text-anchor="middle" x="50" y="-31.5" font-family="Helvetica,sans-Serif" font-size="10.00">predicates</text>
</a>
</g>
</g>
<!-- dir_68267d1309a1af8e8297ef4c3efbcdba&#45;&gt;dir_c1c893c91ca02d934d07bb0f5a2ce590 -->
<g id="edge2" class="edge">
<title>dir_68267d1309a1af8e8297ef4c3efbcdba&#45;&gt;dir_c1c893c91ca02d934d07bb0f5a2ce590</title>
<path fill="none" stroke="black" d="M79.36,-87.7C74.87,-79.64 69.44,-69.89 64.48,-60.98"/>
<polygon fill="black" stroke="black" points="67.45,-59.14 59.53,-52.1 61.34,-62.54 67.45,-59.14"/>
<g id="a_edge2&#45;headlabel"><a xlink:href="dir_000000_000001.html" target="_top" xlink:title="3">
<text text-anchor="middle" x="71.68" y="-58.39" font-family="Helvetica,sans-Serif" font-size="10.00">3</text>
</a>
</g>
</g>
<!-- dir_b49eefbbc0b88fae91ade3f6e0837401 -->
<g id="node3" class="node">
<title>dir_b49eefbbc0b88fae91ade3f6e0837401</title>
<g id="a_node3"><a xlink:href="dir_b49eefbbc0b88fae91ade3f6e0837401.html" target="_top" xlink:title="ranges">
<polygon fill="white" stroke="black" points="156,-52 102,-52 102,-16 156,-16 156,-52"/>
<text text-anchor="middle" x="129" y="-31.5" font-family="Helvetica,sans-Serif" font-size="10.00">ranges</text>
</a>
</g>
</g>
<!-- dir_68267d1309a1af8e8297ef4c3efbcdba&#45;&gt;dir_b49eefbbc0b88fae91ade3f6e0837401 -->
<g id="edge1" class="edge">
<title>dir_68267d1309a1af8e8297ef4c3efbcdba&#45;&gt;dir_b49eefbbc0b88fae91ade3f6e0837401</title>
<path fill="none" stroke="black" d="M98.89,-87.7C103.49,-79.64 109.06,-69.89 114.15,-60.98"/>
<polygon fill="black" stroke="black" points="117.3,-62.52 119.23,-52.1 111.23,-59.05 117.3,-62.52"/>
<g id="a_edge1&#45;headlabel"><a xlink:href="dir_000000_000002.html" target="_top" xlink:title="3">
<text text-anchor="middle" x="117.99" y="-64.55" font-family="Helvetica,sans-Serif" font-size="10.00">3</text>
</a>
</g>
</g>
</g>
</svg>
