<?xml version="1.0" encoding="UTF-8" standalone="no"?>
<!DOCTYPE svg PUBLIC "-//W3C//DTD SVG 1.1//EN"
 "http://www.w3.org/Graphics/SVG/1.1/DTD/svg11.dtd">
<!-- Generated by graphviz version 2.43.0 (0)
 -->
<!-- Title: pzu::is_multiple Pages: 1 -->
<svg width="270pt" height="158pt"
 viewBox="0.00 0.00 270.00 158.00" xmlns="http://www.w3.org/2000/svg" xmlns:xlink="http://www.w3.org/1999/xlink">
<g id="graph0" class="graph" transform="scale(1 1) rotate(0) translate(4 154)">
<title>pzu::is_multiple</title>
<polygon fill="white" stroke="transparent" points="-4,4 -4,-154 266,-154 266,4 -4,4"/>
<!-- Node1 -->
<g id="node1" class="node">
<title>Node1</title>
<g id="a_node1"><a xlink:title="Defines what a multiple of two items is.">
<polygon fill="#bfbfbf" stroke="black" points="168,-56.5 168,-75.5 262,-75.5 262,-56.5 168,-56.5"/>
<text text-anchor="middle" x="215" y="-63.5" font-family="Helvetica,sans-Serif" font-size="10.00">pzu::is_multiple</text>
</a>
</g>
</g>
<!-- Node1&#45;&gt;Node1 -->
<g id="edge1" class="edge">
<title>Node1&#45;&gt;Node1</title>
<path fill="none" stroke="midnightblue" d="M242.63,-84.65C241.47,-89.94 232.26,-94 215,-94 188.7,-94 181.09,-84.57 192.19,-75.76"/>
<polygon fill="midnightblue" stroke="midnightblue" points="245.65,-82.89 237.81,-75.76 239.49,-86.22 245.65,-82.89"/>
</g>
<!-- Node2 -->
<g id="node2" class="node">
<title>Node2</title>
<g id="a_node2"><a xlink:href="multiple_8hpp.html#a81d5f979b535b7b5d7f5eafc8c34d690" target="_top" xlink:title="Return a lambda function for testing whether a given number is a multiple of the provided argument.">
<polygon fill="white" stroke="black" points="11.5,-112.5 11.5,-131.5 120.5,-131.5 120.5,-112.5 11.5,-112.5"/>
<text text-anchor="middle" x="66" y="-119.5" font-family="Helvetica,sans-Serif" font-size="10.00">pzu::is_multiple_of</text>
</a>
</g>
</g>
<!-- Node1&#45;&gt;Node2 -->
<g id="edge2" class="edge">
<title>Node1&#45;&gt;Node2</title>
<path fill="none" stroke="midnightblue" d="M185.65,-79.97C170.04,-87.36 150.2,-96.27 132,-103 122.74,-106.42 112.55,-109.65 103.05,-112.43"/>
<polygon fill="midnightblue" stroke="midnightblue" points="187.26,-83.08 194.77,-75.6 184.24,-76.77 187.26,-83.08"/>
</g>
<!-- Node3 -->
<g id="node3" class="node">
<title>Node3</title>
<g id="a_node3"><a xlink:href="multiple_8hpp.html#a92bad72e0077fc1591db9c8de3a325ed" target="_top" xlink:title="Return a lambda function for testing whether a number is a multiple of all of the provided arguments.">
<polygon fill="white" stroke="black" points="3,-56.5 3,-75.5 129,-75.5 129,-56.5 3,-56.5"/>
<text text-anchor="middle" x="66" y="-63.5" font-family="Helvetica,sans-Serif" font-size="10.00">pzu::is_multiple_of_all</text>
</a>
</g>
</g>
<!-- Node1&#45;&gt;Node3 -->
<g id="edge4" class="edge">
<title>Node1&#45;&gt;Node3</title>
<path fill="none" stroke="midnightblue" d="M157.87,-66C148.47,-66 138.66,-66 129.11,-66"/>
<polygon fill="midnightblue" stroke="midnightblue" points="157.89,-69.5 167.89,-66 157.89,-62.5 157.89,-69.5"/>
</g>
<!-- Node4 -->
<g id="node4" class="node">
<title>Node4</title>
<g id="a_node4"><a xlink:href="multiple_8hpp.html#adba31125d00403ecf2838bd111586d9a" target="_top" xlink:title="Return a lambda function for testing whether a number is a multiple of any of the provided arguments.">
<polygon fill="white" stroke="black" points="0,-0.5 0,-19.5 132,-19.5 132,-0.5 0,-0.5"/>
<text text-anchor="middle" x="66" y="-7.5" font-family="Helvetica,sans-Serif" font-size="10.00">pzu::is_multiple_of_any</text>
</a>
</g>
</g>
<!-- Node1&#45;&gt;Node4 -->
<g id="edge6" class="edge">
<title>Node1&#45;&gt;Node4</title>
<path fill="none" stroke="midnightblue" d="M179.32,-52.79C152.48,-42.56 115.95,-28.65 91.94,-19.5"/>
<polygon fill="midnightblue" stroke="midnightblue" points="178.14,-56.08 188.73,-56.37 180.63,-49.54 178.14,-56.08"/>
</g>
<!-- Node2&#45;&gt;Node2 -->
<g id="edge3" class="edge">
<title>Node2&#45;&gt;Node2</title>
<path fill="none" stroke="midnightblue" d="M93.63,-140.65C92.47,-145.94 83.26,-150 66,-150 39.7,-150 32.09,-140.57 43.19,-131.76"/>
<polygon fill="midnightblue" stroke="midnightblue" points="96.65,-138.89 88.81,-131.76 90.49,-142.22 96.65,-138.89"/>
</g>
<!-- Node3&#45;&gt;Node3 -->
<g id="edge5" class="edge">
<title>Node3&#45;&gt;Node3</title>
<path fill="none" stroke="midnightblue" d="M93.63,-84.65C92.47,-89.94 83.26,-94 66,-94 39.7,-94 32.09,-84.57 43.19,-75.76"/>
<polygon fill="midnightblue" stroke="midnightblue" points="96.65,-82.89 88.81,-75.76 90.49,-86.22 96.65,-82.89"/>
</g>
<!-- Node4&#45;&gt;Node4 -->
<g id="edge7" class="edge">
<title>Node4&#45;&gt;Node4</title>
<path fill="none" stroke="midnightblue" d="M93.63,-28.65C92.47,-33.94 83.26,-38 66,-38 39.7,-38 32.09,-28.57 43.19,-19.76"/>
<polygon fill="midnightblue" stroke="midnightblue" points="96.65,-26.89 88.81,-19.76 90.49,-30.22 96.65,-26.89"/>
</g>
</g>
</svg>
